<svg xmlns="http://www.w3.org/2000/svg" viewBox="0 0 512 512"><defs><style>.cls-1{fill:#333;}.cls-2,.cls-5{fill:#7f47dd;}.cls-2{opacity:0.5;}.cls-3{fill:#fff;}.cls-4{fill:#ff0;}.cls-5{font-size:64px;font-family:Futura-Medium, Futura;}.cls-6{letter-spacing:-0.01em;}</style></defs><title>icon-astro</title><g id="Layer_7" data-name="Layer 7"><rect class="cls-1" width="512" height="512"/></g><g id="flor_de_astro" data-name="flor de astro"><circle class="cls-2" cx="181.5" cy="280.5" r="150"/><circle class="cls-2" cx="209.5" cy="192.5" r="150"/><circle class="cls-2" cx="302.5" cy="192.5" r="150"/><circle class="cls-2" cx="331.5" cy="280.5" r="150"/><circle class="cls-2" cx="255.5" cy="335.5" r="150"/></g><g id="A"><path class="cls-3" d="M133.5,423.5c0-82.69,95-374,122-374,26.75,0,121,291.31,121,374,0-19.46-95-88-122-88C227.75,335.5,133.5,404,133.5,423.5Z" transform="translate(0)"/></g><g id="Layer_9" data-name="Layer 9"><path class="cls-4" d="M60,192c0,17.69,152.67,80,196,80" transform="translate(0)"/><path class="cls-4" d="M452,192c0,17.69-152.67,80-196,80" transform="translate(0)"/><path class="cls-4" d="M452,192c0-3.1-73.07-7-131-7" transform="translate(0)"/><path class="cls-4" d="M60,192c0-4.86,75.3-11,135-11" transform="translate(0)"/></g><g id="texto"><text class="cls-5" transform="translate(179.64 327.28)">Ast<tspan class="cls-6" x="90.88" y="0">r</tspan><tspan x="114.25" y="0">o</tspan></text></g></svg>