<svg xmlns="http://www.w3.org/2000/svg" viewBox="0 0 450 443"><defs><style>.cls-1{fill:#333;}.cls-2,.cls-5{fill:#7f47dd;}.cls-2{opacity:0.5;}.cls-3{fill:#fff;}.cls-4{fill:#ff0;}</style></defs><title>astro</title><g id="flor_back" data-name="flor back"><circle class="cls-1" cx="150" cy="238" r="150"/><circle class="cls-1" cx="178" cy="150" r="150"/><circle class="cls-1" cx="271" cy="150" r="150"/><circle class="cls-1" cx="300" cy="238" r="150"/><circle class="cls-1" cx="224" cy="293" r="150"/></g><g id="flor_de_astro" data-name="flor de astro"><circle class="cls-2" cx="150" cy="238" r="150"/><circle class="cls-2" cx="178" cy="150" r="150"/><circle class="cls-2" cx="271" cy="150" r="150"/><circle class="cls-2" cx="300" cy="238" r="150"/><circle class="cls-2" cx="224" cy="293" r="150"/></g><g id="A"><path class="cls-3" d="M132,415.17c0-82.69,95-374,122-374,26.76,0,121,291.31,121,374,0-19.46-95-88-122-88C226.27,327.17,132,395.71,132,415.17Z" transform="translate(-30 -33.5)"/></g><g id="star"><path class="cls-4" d="M58.47,184.31C58.5,202,211.26,264.07,254.6,264" transform="translate(-30 -33.5)"/><path class="cls-4" d="M450.47,183.69c0,17.69-152.54,80.24-195.87,80.31" transform="translate(-30 -33.5)"/><path class="cls-4" d="M450.47,183.69c0-4.82-76.13-10.78-136.47-10.69" transform="translate(-30 -33.5)"/><path class="cls-4" d="M58.47,184.31c0-4.87,72.62-11.12,135-11.21" transform="translate(-30 -33.5)"/></g><g id="texto"><path class="cls-5" d="M214.67,305.56H194l-5.38,11.72h-7.84L204.67,266l23,51.28h-8Zm-3-6.84-7.16-16.41L197,298.72Z" transform="translate(-30 -33.5)"/><path class="cls-5" d="M250.07,292l-5.81,3.09c-.92-1.87-2-2.81-3.41-2.81a2.35,2.35,0,0,0-1.65.64,2.15,2.15,0,0,0-.69,1.64q0,1.76,4.06,3.47,5.6,2.42,7.53,4.44A7.6,7.6,0,0,1,252,308a9.56,9.56,0,0,1-3.25,7.37,11,11,0,0,1-7.62,2.82q-7.66,0-10.85-7.47l6-2.78a13.13,13.13,0,0,0,1.91,2.78,4.33,4.33,0,0,0,3.06,1.18c2.38,0,3.56-1.08,3.56-3.25,0-1.25-.91-2.41-2.75-3.5l-2.12-1c-.71-.33-1.43-.67-2.16-1a13.16,13.16,0,0,1-4.31-3,7.38,7.38,0,0,1-1.59-4.9,8.7,8.7,0,0,1,2.71-6.57,9.55,9.55,0,0,1,6.75-2.59Q247.23,286,250.07,292Z" transform="translate(-30 -33.5)"/><path class="cls-5" d="M265.6,293.41v23.87h-7V293.41h-3v-6.57h3V275.69h7v11.15h5.47v6.57Z" transform="translate(-30 -33.5)"/><path class="cls-5" d="M275.85,286.84h7v2.72a13.66,13.66,0,0,1,3.44-2.78A7.9,7.9,0,0,1,290,286a11.34,11.34,0,0,1,5.81,1.81l-3.22,6.44a6.71,6.71,0,0,0-3.91-1.44q-5.75,0-5.75,8.69v15.78h-7Z" transform="translate(-30 -33.5)"/><path class="cls-5" d="M297.79,301.84a15.13,15.13,0,0,1,4.72-11.22,16.65,16.65,0,0,1,23.06,0,16.28,16.28,0,0,1,0,22.9,16.15,16.15,0,0,1-11.66,4.6,15.47,15.47,0,0,1-11.46-4.69A15.76,15.76,0,0,1,297.79,301.84ZM305,302a10.25,10.25,0,0,0,2.44,7.22,9.48,9.48,0,0,0,13.18,0,11.43,11.43,0,0,0,0-14.19,9.34,9.34,0,0,0-13.12,0A9.76,9.76,0,0,0,305,302Z" transform="translate(-30 -33.5)"/></g></svg>