<svg height="492pt" viewBox="-18 0 492 492.00002" width="492pt" xmlns="http://www.w3.org/2000/svg"><path d="m421.734375 158.386719h-93.863281v-11.675781h48.199218c2.597657 0 4.902344-1.671876 5.707032-4.140626.804687-2.472656-.074219-5.179687-2.175782-6.710937l-49.105468-35.75c.007812-.117187.019531-.230469.019531-.351563v-55.839843c0-3.3125-2.6875-6-6-6s-6 2.6875-6 6v47.46875l-123.949219-90.238281c-2.105468-1.53125-4.957031-1.53125-7.0625 0l-185.035156 134.710937c-2.101562 1.53125-2.976562 4.238281-2.175781 6.710937.804687 2.46875 3.109375 4.140626 5.707031 4.140626h48.199219v202.8125c0 3.3125 2.6875 6 6 6h76.027343v85.140624l-16.945312.027344c-3.308594.003906-5.988281 2.691406-5.988281 6v16.375c.019531 15.96875 12.957031 28.914063 28.929687 28.933594h108.179688v-.011719c.253906.007813.507812.011719.765625.011719 12.804687-.015625 23.183593-10.394531 23.199219-23.199219v-129.816406h48.535156c7.410156 17.328125 25.984375 27.054687 44.445312 23.273437 18.464844-3.78125 31.71875-20.027343 31.722656-38.871093v-104.34375h51.332032c3.3125 0 6-2.6875 6-6v-19.992188c-.023438-19.136719-15.53125-34.644531-34.667969-34.664062zm-355.535156 185.136719v-202.8125c0-3.3125-2.683594-6-6-6h-35.765625l166.601562-121.289063 166.601563 121.289063h-35.765625c-3.3125 0-6 2.6875-6 6v17.675781h-1.640625c-28.632813.03125-51.835938 23.234375-51.871094 51.867187v58.246094h-74.265625c-28.636719.03125-51.839844 23.234375-51.871094 51.867188v23.152343zm76.023437 136.476562c-9.347656-.011719-16.921875-7.585938-16.933594-16.933594v-10.382812l102.671876-.167969v16.285156c-.003907 3.917969.988281 7.773438 2.886718 11.199219zm120.136719-176.828125v165.628906c0 6.183594-5.011719 11.199219-11.199219 11.199219-6.183594 0-11.199218-5.015625-11.199218-11.199219v-22.296875c0-3.3125-2.6875-6-6-6h-.011719l-85.726563.140625v-120.273437c.023438-22.007813 17.859375-39.84375 39.871094-39.867188h82.738281c-5.464843 6.285156-8.476562 14.335938-8.472656 22.667969zm12 23.8125v-23.8125c0-12.519531 10.152344-22.667969 22.667969-22.667969 12.519531 0 22.667968 10.148438 22.667968 22.667969v20.210937c0 1.214844.066407 2.414063.171876 3.597657zm112.703125-133.933594v130.332031c-.09375 15.222657-12.460938 27.519532-27.6875 27.519532-15.222656 0-27.589844-12.296875-27.683594-27.519532v-20.210937c-.023437-18.246094-14.167968-33.359375-32.375-34.585937v-.085938h-24.957031v-58.25c.027344-22.007812 17.863281-39.84375 39.871094-39.867188h81.304687c-5.464844 6.285157-8.476562 14.335938-8.46875 22.667969zm57.339844 13.992188h-45.335938v-13.992188c0-12.519531 10.148438-22.667969 22.667969-22.667969s22.667969 10.148438 22.667969 22.667969zm0 0"/><path d="m361.101562 215.300781h-62.210937c-3.3125 0-6 2.683594-6 6 0 3.3125 2.6875 6 6 6h62.210937c3.3125 0 6-2.6875 6-6 0-3.316406-2.6875-6-6-6zm0 0"/><path d="m322.148438 245.398438h-23.257813c-3.3125 0-6 2.6875-6 6 0 3.316406 2.6875 6 6 6h23.257813c3.3125 0 6-2.683594 6-6 0-3.3125-2.6875-6-6-6zm0 0"/><path d="m235.679688 306.1875h-62.207032c-3.316406 0-6 2.6875-6 6s2.683594 6 6 6h62.207032c3.3125 0 6-2.6875 6-6s-2.6875-6-6-6zm0 0"/><path d="m195.546875 336.289062h-22.074219c-3.316406 0-6 2.683594-6 6 0 3.3125 2.683594 6 6 6h22.074219c3.3125 0 6-2.6875 6-6 0-3.316406-2.6875-6-6-6zm0 0"/><path d="m182.800781 386.011719c2.390625 0 4.332031 1.9375 4.332031 4.332031 0 2.761719 2.238282 5 5 5 2.761719 0 5-2.238281 5-5-.007812-5.980469-3.730468-11.328125-9.332031-13.417969v-3.964843c0-2.761719-2.238281-5-5-5s-5 2.238281-5 5v3.964843c-6.5 2.417969-10.332031 9.140625-9.105469 15.964844 1.230469 6.824219 7.171876 11.789063 14.105469 11.785156 2.390625-.011719 4.339844 1.921875 4.347657 4.3125.007812 2.394531-1.921876 4.339844-4.3125 4.347657h-.035157c-.011719 0-.023437 0-.035156 0-2.378906-.015626-4.296875-1.949219-4.296875-4.328126 0-2.761718-2.242188-5-5-5-2.761719 0-5 2.238282-5 5 .007812 5.980469 3.726562 11.328126 9.332031 13.414063v1.472656c0 2.761719 2.238281 5 5 5s5-2.238281 5-5v-1.472656c6.5-2.414063 10.332031-9.140625 9.101563-15.964844-1.226563-6.824219-7.167969-11.785156-14.101563-11.78125-1.5625.023438-3.019531-.796875-3.808593-2.148437-.789063-1.347656-.789063-3.019532 0-4.371094.789062-1.347656 2.246093-2.171875 3.808593-2.144531zm0 0"/><path d="m224.191406 386.011719c2.394532 0 4.332032 1.941406 4.332032 4.332031 0 2.761719 2.238281 5 5 5 2.761718 0 5-2.238281 5-5-.007813-5.980469-3.726563-11.328125-9.332032-13.414062v-3.96875c0-2.761719-2.238281-5-5-5-2.761718 0-5 2.238281-5 5v3.964843c-6.496094 2.417969-10.332031 9.140625-9.101562 15.964844 1.230468 6.824219 7.167968 11.789063 14.101562 11.785156 2.394532-.011719 4.339844 1.921875 4.351563 4.3125.007812 2.394531-1.925781 4.339844-4.316407 4.347657-.011718 0-.023437 0-.035156 0-.011718 0-.019531 0-.03125 0-2.378906-.015626-4.296875-1.949219-4.300781-4.328126 0-2.761718-2.238281-5-5-5s-5 2.238282-5 5c.011719 5.980469 3.730469 11.328126 9.332031 13.414063v1.472656c0 2.761719 2.238282 5 5 5 2.761719 0 5-2.238281 5-5v-1.472656c6.5-2.414063 10.335938-9.140625 9.105469-15.964844s-7.171875-11.785156-14.105469-11.78125c-1.5625.023438-3.019531-.796875-3.808594-2.148437-.785156-1.347656-.785156-3.019532 0-4.371094.789063-1.347656 2.246094-2.171875 3.808594-2.144531zm0 0"/></svg>