<svg xmlns="http://www.w3.org/2000/svg" viewBox="0 0 160.08 126.1"><defs><style>.cls-1{fill:#fff;}.cls-2{fill:#fff;}.cls-3{fill:#462644;}</style></defs><title>Asset 2</title><g id="Layer_2" data-name="Layer 2"><g id="Layer_1-2" data-name="Layer 1"><path class="cls-1" d="M8.38,108.6c-6.3-3.9,3.5-13.8,14.6-22.5,0,0-44.2,29-10,31.1,12,.7,25.9-.5,39.9-3.1-.3-.2-.5-.4-.8-.6C35.88,116.2,20,115.8,8.38,108.6Z"/><path class="cls-2" d="M20.08,73a13.08,13.08,0,0,1,5.11,1,7.67,7.67,0,0,1,3.56,3.27A12.12,12.12,0,0,1,30,81.8a15.22,15.22,0,0,0,.82,3.61,5.74,5.74,0,0,0,1,1.73,2.9,2.9,0,0,0,1.7,1,5.85,5.85,0,0,0,2.84-.47,40.76,40.76,0,0,0,4.63-2.32,69.3,69.3,0,0,0,10-6.19c3.28-2.37,6.63-5,10-7.92a18.71,18.71,0,0,0,3.13-3.49,6.56,6.56,0,0,0,1.07-2.85,9,9,0,0,0-.07-2.9,13.12,13.12,0,0,0-2.58-.94,17,17,0,0,0-3.33-.4,22.65,22.65,0,0,0-3.84.16A66.31,66.31,0,0,0,48.4,62,96.46,96.46,0,0,0,38,65.13c-3.62,1.36-7.1,2.74-10.3,4.15Z"/><path class="cls-1" d="M160.08,29.5a20.15,20.15,0,0,0-32.2-16.4A62.59,62.59,0,0,1,150.18,47,20.54,20.54,0,0,0,160.08,29.5Z"/><path class="cls-3" d="M127.78,13.1A61.64,61.64,0,0,0,89.68,0a62.78,62.78,0,0,0-62.6,63c0,2.2.1,4.3.3,6.4,17.3-7.8,32.5-10.8,37.6-7.3a4,4,0,0,1,1.4,1.5c3.1,6.1-10.8,19.4-31.2,30.4a64.92,64.92,0,0,0,17,19.5c.3.2.5.4.8.6a62.21,62.21,0,0,0,36.7,12c34.5,0,62.6-28.2,62.6-63a60.54,60.54,0,0,0-2.1-16,63.19,63.19,0,0,0-22.4-34Z"/><path class="cls-1" d="M66.48,63.6a4,4,0,0,0-1.4-1.5c.6,3.9-.6,6.3-5.5,10.3-6.9,5.7-12.3,9.7-19.3,13.3-4.7,2.4-9.3,5.7-10.4-4.5-.6-6-4.6-8.1-9.7-8.2-20.6,10.7,1.6,5.7,4.8,11.9s-14.4,21.8,7.6,10.5c.9-.5,1.8-1,2.7-1.4,20.4-11,34.2-24.3,31.2-30.4Z"/></g></g></svg>
